<svg width="8" height="6" viewBox="0 0 8 6" fill="none" xmlns="http://www.w3.org/2000/svg">
<path d="M4.61304 4.70185L7.59009 1.7248C7.77173 1.54317 7.77173 1.24859 7.59009 1.06695C7.40842 0.885276 7.11391 0.885276 6.93224 1.06695L4.74928 3.24991C4.74928 3.24991 4.52962 3.49592 4.28589 3.49075C4.04802 3.48571 3.81895 3.24991 3.81895 3.24991L1.63599 1.06702C1.45432 0.88535 1.15981 0.88535 0.97814 1.06702C0.887378 1.15782 0.841904 1.27691 0.841904 1.39595C0.841904 1.515 0.887378 1.63404 0.97814 1.72488L3.95519 4.70185C4.13686 4.88353 4.43137 4.88353 4.61304 4.70185Z" fill="black" stroke="black" stroke-width="0.5"/>
</svg>
