<svg width="28" height="28" viewBox="0 0 28 28" fill="none" xmlns="http://www.w3.org/2000/svg">
<path d="M8.25886 22.0732C6.74473 22.0732 5.51967 23.3148 5.51967 24.8324C5.51967 26.3499 6.74473 27.5915 8.25886 27.5915C9.77298 27.5915 11.0118 26.3499 11.0118 24.8324C11.0118 23.3148 9.77298 22.0732 8.25886 22.0732ZM0 0V2.75915H2.75295L7.70827 13.2301L5.85003 16.6101C5.62979 16.9964 5.50591 17.4516 5.50591 17.9345C5.50591 19.452 6.74473 20.6936 8.25886 20.6936H24.7766V17.9345H8.83698C8.64427 17.9345 8.49286 17.7827 8.49286 17.5896L8.53415 17.424L9.77298 15.1753H20.0277C21.0601 15.1753 21.9686 14.6097 22.4366 13.7544L27.3644 4.80092C27.4745 4.60778 27.5295 4.37325 27.5295 4.13873C27.5295 3.37996 26.9101 2.75915 26.1531 2.75915H5.79497L4.50108 0H0ZM22.0236 22.0732C20.5095 22.0732 19.2844 23.3148 19.2844 24.8324C19.2844 26.3499 20.5095 27.5915 22.0236 27.5915C23.5377 27.5915 24.7766 26.3499 24.7766 24.8324C24.7766 23.3148 23.5377 22.0732 22.0236 22.0732Z" fill="#333333"/>
</svg>
